<svg xmlns="http://www.w3.org/2000/svg" viewBox="0 0 80 80">
  <path vector-effect="non-scaling-stroke" fill="none" stroke="#000" stroke-width=".5" d="M13.18 47.02h53.64M13.18 32.98h53.64M6.22 40 40 6.37 73.78 40 40 73.63zM.39 40 40 .56 79.61 40 40 79.44z"/>
  <path d="M46.17 62.5q0 .5-.16.76-.15.26-.46.26-.3 0-.45-.26-.16-.26-.16-.75v-.41q0-.5.15-.76.16-.26.46-.26.3 0 .46.25.15.26.16.74zm-.18-.43q0-.4-.11-.61-.11-.2-.33-.2-.2 0-.32.19-.1.2-.11.59v.48q0 .4.1.61.12.22.33.22.21 0 .32-.2.11-.21.12-.61zm-1.88 1.41h-.18v-2.13l-.54.24v-.18l.7-.3h.02zm-1.18-.99q0 .5-.16.77-.16.26-.46.26-.3 0-.46-.26-.15-.26-.16-.75v-.41q0-.5.16-.76.15-.26.46-.26.3 0 .45.25.16.26.17.74zm-.19-.42q0-.4-.1-.61-.11-.2-.33-.2-.21 0-.32.19-.11.2-.12.59v.48q0 .4.11.61.12.22.33.22.21 0 .32-.2.11-.21.11-.61zm-1.39 1.41H40.1v-.15l.68-.9q.17-.24.23-.4.07-.15.07-.3 0-.22-.1-.35-.11-.13-.3-.13-.2 0-.32.15-.12.16-.12.4h-.18q0-.31.17-.51t.45-.2q.27 0 .43.16.16.17.16.47 0 .28-.26.66l-.1.15-.59.79h1.04zm-2.78-.11q0-.06.04-.1.03-.04.1-.04.06 0 .1.04.04.04.04.1 0 .05-.04.09-.04.04-.1.04-.07 0-.1-.04-.04-.04-.04-.1zm.02-2.08h-.68v2.2h-.18v-2.2h-.68v-.18h1.54zm-1.97 1.61q0-.2-.11-.31-.11-.11-.42-.22-.31-.1-.46-.23-.19-.17-.19-.44 0-.28.19-.45.19-.17.48-.17.3 0 .5.2.19.2.19.51h-.19q0-.24-.13-.38-.14-.15-.37-.15-.22 0-.35.12-.13.12-.13.31 0 .18.12.3.12.1.39.2.27.09.4.18.14.1.2.23.07.12.07.3 0 .28-.19.45-.19.17-.5.17-.2 0-.38-.09-.17-.08-.26-.24-.1-.16-.1-.38h.19q0 .25.15.4.15.13.4.13.23 0 .36-.12.14-.12.14-.32zm-1.66-.55h-.92v.96h1.05v.17h-1.24v-2.37h1.24v.18h-1.05v.89h.92zM56.17 28.7q-.08 1.2-.64 1.76-.57.55-1.57.55-1.03 0-1.63-.77-.6-.78-.6-2.12v-1.55q0-1.34.6-2.1.62-.76 1.67-.76 1 0 1.55.57.54.57.62 1.75h-.57q-.07-.96-.46-1.38-.37-.41-1.14-.41-.8 0-1.25.6-.45.6-.45 1.74v1.52q0 1.14.43 1.77.44.63 1.23.63.83 0 1.2-.42.37-.41.44-1.38zm-5.75 2.22h-.56V23.8h.56zm-3.66-2.96H45.1v2.96h-.56V23.8h1.95q.97 0 1.5.55.54.55.54 1.54 0 .69-.33 1.21-.34.52-.9.72l1.48 3.02v.07h-.6zm-1.66-.52h1.48q.63 0 1.01-.43.38-.44.38-1.1 0-.76-.4-1.17-.39-.4-1.09-.4H45.1zm-1.92.07h-2.76v2.89h3.18v.52h-3.73V23.8h3.7v.52h-3.15V27h2.76zm-4.71 3.4h-.56l-3.35-6.05v6.06H34V23.8h.56l3.36 6.06v-6.06h.55zm-5.84-3.4h-2.76v2.89h3.17v.52h-3.73V23.8h3.71v.52h-3.15V27h2.76zM28 30.1q-.35.46-.9.7-.54.22-1.18.22-1.1 0-1.72-.73-.63-.73-.65-2.03v-1.73q0-1.36.6-2.08.59-.73 1.68-.73.99 0 1.54.54.56.54.63 1.56h-.56q-.09-.82-.48-1.2-.4-.37-1.12-.37-.87 0-1.3.58-.43.57-.43 1.7v1.63q0 1.11.47 1.73.48.62 1.34.62.93 0 1.52-.6v-1.85h-1.56v-.52H28zm26.7 22.76h-2.75v2.89h3.17v.52H51.4v-7.11h3.7v.52h-3.14v2.66h2.76zm-4.96 0h-2.76v2.89h3.17v.52h-3.73v-7.11h3.7v.52h-3.14v2.66h2.76zm-4.93.1h-2.73v3.3h-.56v-7.1h3.7v.52h-3.14v2.75h2.73zm-4.9 0h-2.74v3.3h-.55v-7.1h3.7v.52h-3.15v2.75h2.74zm-4.78.52q0 1.38-.6 2.13t-1.7.75q-1.08 0-1.7-.75-.6-.75-.6-2.11v-1.55q0-1.37.6-2.13.61-.76 1.7-.76 1.09 0 1.7.76.6.76.6 2.14zm-.56-1.54q0-1.17-.45-1.75-.45-.59-1.3-.59-.81 0-1.27.58-.46.57-.47 1.71v1.6q0 1.16.46 1.75.47.6 1.3.6.84 0 1.28-.6.45-.58.45-1.76zm-5.24 2.1q-.08 1.2-.65 1.77-.56.55-1.57.55-1.03 0-1.62-.77-.6-.78-.6-2.12V51.9q0-1.34.6-2.1.61-.76 1.67-.76 1 0 1.54.57.55.57.63 1.75h-.57q-.08-.96-.46-1.38-.38-.41-1.14-.41-.8 0-1.26.6-.45.6-.45 1.74v1.52q0 1.14.44 1.77.43.63 1.22.63.83 0 1.2-.42.38-.41.45-1.38zm31.9-12.93H58.9v4.14h-.78v-9.95h2.72q1.36 0 2.11.77.75.78.75 2.16 0 .96-.46 1.7-.47.72-1.25 1l2.07 4.23v.09h-.84Zm-2.33-.73h2.08q.88 0 1.4-.6.54-.6.54-1.55 0-1.05-.55-1.62-.55-.58-1.53-.58H58.9zm-3.28.1h-3.86v4.04h4.44v.73h-5.22v-9.95h5.19v.73h-4.4v3.73h3.85zm-6.43-4.45h-2.83v9.22h-.78v-9.22h-2.83v-.73h6.44zm-8.45 6.77q0-.83-.47-1.31-.48-.48-1.78-.92-1.3-.43-1.9-.97-.8-.7-.8-1.86 0-1.15.78-1.86.79-.72 2.03-.72 1.28 0 2.08.83.8.84.8 2.15h-.78q0-1-.56-1.62-.57-.62-1.54-.62-.94 0-1.49.51-.54.5-.54 1.31 0 .75.52 1.23.5.48 1.63.86 1.12.37 1.7.77.57.4.84.94.28.54.28 1.27 0 1.17-.8 1.88-.78.72-2.08.72-.88 0-1.6-.36-.72-.36-1.13-1.03-.4-.68-.4-1.6h.78q0 1.06.63 1.66.64.6 1.72.6.94 0 1.51-.5.57-.51.57-1.36zm-11.63-1.6v4.05h-.78v-9.95h2.9q1.31 0 2.07.79.76.8.76 2.18 0 1.41-.74 2.17-.73.76-2.11.76zm0-.73h2.11q.99 0 1.52-.57.54-.57.54-1.62 0-1.04-.55-1.64-.54-.6-1.5-.6h-2.12zm-3.46 4.78h-.78v-9.95h.78zm-3.48 0h-.79v-4.77h-4.67v4.77h-.78v-9.95h.78v4.46h4.67v-4.46h.79zm19.47-31.09a2.71 3.28 30 0 0-3.99 1.49 2.71 3.28 30 0 0 .22 3.8c.03-.39.12-.84.37-1.27.31-.5 1.03-.97 1.72-1.44.35-.24.7-.47.97-.7.28-.21.49-.42.57-.57.23-.45.2-.94.15-1.3a2.71 3.28 30 0 0-.01 0zm.44.34c0 .36-.03.77-.23 1.16-.13.25-.37.47-.67.7-.3.23-.64.47-.99.71-.7.47-1.4.98-1.6 1.32-.3.5-.34 1-.33 1.38a2.71 3.28 30 0 0 .1.07 2.71 3.28 30 0 0 3.99-1.48 2.71 3.28 30 0 0-.27-3.86z"/>
</svg>
