<?xml version="1.0" encoding="UTF-8" standalone="no"?>
<svg
   viewBox="0 0 80 80"
   version="1.1"
   id="svg352"
   sodipodi:docname="logo.svg"
   inkscape:version="1.2.1 (9c6d41e410, 2022-07-14)"
   xmlns:inkscape="http://www.inkscape.org/namespaces/inkscape"
   xmlns:sodipodi="http://sodipodi.sourceforge.net/DTD/sodipodi-0.dtd"
   xmlns="http://www.w3.org/2000/svg"
   xmlns:svg="http://www.w3.org/2000/svg">
  <defs
     id="defs356" />
  <sodipodi:namedview
     id="namedview354"
     pagecolor="#ffffff"
     bordercolor="#000000"
     borderopacity="0.25"
     inkscape:showpageshadow="2"
     inkscape:pageopacity="0.0"
     inkscape:pagecheckerboard="0"
     inkscape:deskcolor="#d1d1d1"
     showgrid="false"
     inkscape:lockguides="true"
     inkscape:zoom="7.327394"
     inkscape:cx="44.558816"
     inkscape:cy="40.259879"
     inkscape:window-width="1920"
     inkscape:window-height="1009"
     inkscape:window-x="-8"
     inkscape:window-y="-8"
     inkscape:window-maximized="1"
     inkscape:current-layer="svg352" />
  <path
     fill="none"
     stroke="#000"
     stroke-width="0.5"
     d="M13.18186 47.022h53.63626M13.18186 32.978h53.63626M6.21902 40L40 6.3672 73.78094 40 40 73.6328zM.38676 40L40 .5605 79.61323 40 40 79.4395z"
     id="path328" />
  <path
     id="path391"
     style="font-weight:300;font-size:3.33333px;line-height:125%;font-family:'Roboto Condensed';-inkscape-font-specification:'Roboto Condensed, Light';text-align:center;letter-spacing:0;word-spacing:0;text-anchor:middle;display:inline;fill:#000000"
     d="m 46.167473,62.494869 q 0,0.504557 -0.15625,0.763346 -0.154623,0.258788 -0.457357,0.258788 -0.299478,0 -0.457356,-0.257161 -0.15625,-0.258789 -0.159505,-0.745442 v -0.416666 q 0,-0.494791 0.154622,-0.755208 0.154623,-0.260416 0.458984,-0.260416 0.299479,0 0.455729,0.252278 0.15625,0.250651 0.161133,0.732422 z m -0.182292,-0.423177 q 0,-0.4069 -0.109049,-0.613606 -0.107422,-0.206705 -0.325521,-0.206705 -0.209961,0 -0.320638,0.198567 -0.109049,0.19694 -0.113932,0.587565 v 0.480142 q 0,0.397135 0.110677,0.615234 0.112305,0.216471 0.327148,0.216471 0.208334,0 0.317383,-0.205078 0.110677,-0.206705 0.113932,-0.605468 z m -1.87337,1.412759 H 43.929519 V 61.35392 l -0.535481,0.239257 v -0.185546 l 0.686848,-0.301107 h 0.03093 z m -1.186522,-0.989582 q 0,0.504557 -0.15625,0.763346 -0.154622,0.258788 -0.457356,0.258788 -0.299479,0 -0.457357,-0.257161 -0.156249,-0.258789 -0.159505,-0.745442 v -0.416666 q 0,-0.494791 0.154623,-0.755208 0.154622,-0.260416 0.458983,-0.260416 0.299479,0 0.455729,0.252278 0.15625,0.250651 0.161133,0.732422 z m -0.182292,-0.423177 q 0,-0.4069 -0.109049,-0.613606 -0.107422,-0.206705 -0.325521,-0.206705 -0.20996,0 -0.320637,0.198567 -0.10905,0.19694 -0.113932,0.587565 v 0.480142 q 0,0.397135 0.110677,0.615234 0.112304,0.216471 0.327148,0.216471 0.208333,0 0.317382,-0.205078 0.110677,-0.206705 0.113932,-0.605468 z m -1.3916,1.412759 h -1.256509 v -0.152994 l 0.673827,-0.90983 q 0.169271,-0.232747 0.236003,-0.385742 0.06673,-0.152995 0.06673,-0.299479 0,-0.222981 -0.107421,-0.35319 -0.105795,-0.131835 -0.294596,-0.131835 -0.200196,0 -0.319011,0.152994 -0.118815,0.151367 -0.118815,0.39388 h -0.180663 q 0,-0.309244 0.170898,-0.512695 0.170898,-0.20345 0.447591,-0.20345 0.270182,0 0.428059,0.169271 0.157877,0.167643 0.157877,0.467122 0,0.28483 -0.257161,0.665689 l -0.104166,0.149739 -0.579427,0.782877 h 1.036783 z m -2.781573,-0.118815 q 0,-0.05859 0.03581,-0.09766 0.03743,-0.04069 0.102539,-0.04069 0.0651,0 0.102539,0.04069 0.03743,0.03906 0.03743,0.09766 0,0.05697 -0.03743,0.0944 -0.03744,0.03744 -0.102539,0.03744 -0.06511,0 -0.102539,-0.03744 -0.03581,-0.03744 -0.03581,-0.0944 z m 0.0179,-2.075193 h -0.673827 v 2.194008 h -0.187175 v -2.194008 h -0.6722 v -0.175781 h 1.533202 z M 36.62158,62.90177 q 0,-0.198568 -0.113932,-0.3125 -0.112305,-0.113932 -0.421549,-0.218099 -0.309245,-0.104166 -0.454101,-0.232747 -0.19043,-0.167643 -0.19043,-0.442708 0,-0.271809 0.187175,-0.442708 0.187174,-0.170898 0.483398,-0.170898 0.302734,0 0.494791,0.198568 0.192057,0.198567 0.192057,0.511067 h -0.187174 q 0,-0.239258 -0.135091,-0.385742 -0.133464,-0.148112 -0.364583,-0.148112 -0.22461,0 -0.354818,0.12207 -0.12858,0.120443 -0.12858,0.3125 0,0.179036 0.12207,0.292968 0.12207,0.113933 0.388997,0.203451 0.266927,0.08789 0.403645,0.183919 0.136719,0.0944 0.201823,0.222981 0.0651,0.128581 0.0651,0.302734 0,0.27832 -0.188802,0.449219 -0.187174,0.16927 -0.496419,0.16927 -0.208333,0 -0.380859,-0.08464 -0.170898,-0.08626 -0.268554,-0.245768 -0.09603,-0.161133 -0.09603,-0.379231 h 0.185547 q 0,0.25065 0.151367,0.393879 0.151367,0.143229 0.408528,0.143229 0.22461,0 0.359701,-0.120442 0.136718,-0.120443 0.136718,-0.322265 z m -1.665037,-0.551758 h -0.919596 v 0.961913 h 1.057942 v 0.172526 h -1.243488 v -2.369789 h 1.23535 v 0.175781 h -1.049804 v 0.887043 h 0.919596 z M 56.170055,28.698544 q -0.07813,1.196289 -0.644532,1.757812 -0.566406,0.556641 -1.567383,0.556641 -1.030273,0 -1.625976,-0.776368 -0.595703,-0.78125 -0.600586,-2.11914 V 26.57452 q 0,-1.342773 0.605469,-2.104492 0.610351,-0.761719 1.665039,-0.761719 0.996094,0 1.542969,0.571289 0.546875,0.571289 0.625,1.75293 h -0.566407 q -0.07813,-0.966797 -0.458984,-1.381836 -0.375977,-0.415039 -1.142578,-0.415039 -0.805664,0 -1.254883,0.600586 -0.449219,0.600586 -0.449219,1.743164 v 1.523437 q 0,1.132813 0.434571,1.762696 0.43457,0.629883 1.225585,0.629883 0.830079,0 1.201172,-0.41504 0.371094,-0.415039 0.444336,-1.381835 z m -5.754923,2.216796 h -0.556641 v -7.109375 h 0.556641 z M 46.75982,27.956356 H 45.099664 V 30.91534 H 44.53814 v -7.109375 h 1.948243 q 0.971679,0 1.503906,0.556641 0.537109,0.551758 0.537109,1.538086 0,0.688477 -0.332031,1.210937 -0.332031,0.517579 -0.893555,0.717774 l 1.479492,3.022461 v 0.06348 h -0.595703 z m -1.660156,-0.517578 h 1.484375 q 0.629883,0 1.005859,-0.429688 0.375977,-0.43457 0.375977,-1.108398 0,-0.74707 -0.390625,-1.157227 -0.390625,-0.410156 -1.09375,-0.410156 h -1.381836 z m -1.917032,0.07324 h -2.758789 v 2.885742 h 3.173828 v 0.517578 h -3.730469 v -7.109375 h 3.706055 v 0.527344 h -3.149414 v 2.661133 h 2.758789 z m -4.714882,3.40332 h -0.556641 l -3.354492,-6.054687 v 6.054687 h -0.561524 v -7.109375 h 0.561524 l 3.359375,6.064454 v -6.064454 h 0.551758 z m -5.83793,-3.40332 h -2.758789 v 2.885742 h 3.173828 v 0.51758 H 29.31439 v -7.109375 h 3.706055 v 0.527344 h -3.149414 v 2.661133 h 2.758789 z m -4.626992,2.578125 q -0.356446,0.458984 -0.898438,0.693359 -0.541992,0.229493 -1.186523,0.229493 -1.09375,0 -1.71875,-0.732422 -0.625,-0.732422 -0.649414,-2.03125 v -1.728516 q 0,-1.362305 0.59082,-2.084961 0.595703,-0.727539 1.694336,-0.727539 0.981445,0 1.538086,0.541992 0.556641,0.541993 0.625,1.5625 h -0.556641 q -0.08789,-0.820312 -0.483398,-1.196289 -0.390625,-0.380859 -1.118164,-0.380859 -0.869141,0 -1.303711,0.581055 -0.429688,0.576171 -0.429688,1.694336 v 1.640625 q 0,1.113281 0.473633,1.728515 0.478516,0.615235 1.337891,0.615235 0.932617,0 1.523437,-0.590821 V 28.05401 h -1.557617 v -0.522461 h 2.119141 z M 54.707035,52.85202 h -2.758789 v 2.885742 h 3.173828 v 0.517579 h -3.730469 v -7.109375 h 3.706055 v 0.527343 h -3.149414 v 2.661133 h 2.758789 z m -4.970703,0 h -2.758789 v 2.885742 h 3.173828 v 0.517579 h -3.730469 v -7.109375 h 3.706055 v 0.527343 h -3.149414 v 2.661133 h 2.758789 z m -4.926758,0.09277 h -2.734375 v 3.310547 h -0.55664 v -7.109375 h 3.701171 v 0.527343 h -3.144531 v 2.744141 h 2.734375 z m -4.902344,0 h -2.734375 v 3.310547 h -0.55664 v -7.109375 h 3.701172 v 0.527343 h -3.144532 v 2.744141 h 2.734375 z m -4.780273,0.527343 q 0,1.376954 -0.605469,2.128907 -0.600586,0.751953 -1.689453,0.751953 -1.079101,0 -1.694336,-0.751953 -0.610351,-0.751953 -0.615234,-2.114258 V 51.93893 q 0,-1.37207 0.610351,-2.128906 0.610352,-0.761719 1.689453,-0.761719 1.09375,0 1.699219,0.761719 0.605469,0.761719 0.605469,2.143555 z m -0.561523,-1.542968 q 0,-1.166992 -0.449219,-1.75293 -0.449219,-0.585937 -1.293946,-0.585937 -0.815429,0 -1.274414,0.576171 -0.458984,0.571289 -0.46875,1.713868 v 1.591796 q 0,1.171875 0.463868,1.762696 0.463867,0.585937 1.289062,0.585937 0.849609,0 1.289063,-0.585937 0.444336,-0.585938 0.444336,-1.762696 z m -5.239258,2.109375 q -0.07813,1.196289 -0.644532,1.757812 -0.566406,0.556641 -1.567382,0.556641 -1.030274,0 -1.625977,-0.776367 -0.595703,-0.78125 -0.600586,-2.119141 V 51.91452 q 0,-1.342773 0.605469,-2.104492 0.610351,-0.761719 1.665039,-0.761719 0.996094,0 1.542969,0.571289 0.546875,0.571289 0.625,1.75293 h -0.566407 q -0.07813,-0.966797 -0.458984,-1.381836 -0.375976,-0.415039 -1.142578,-0.415039 -0.805664,0 -1.254883,0.600586 -0.449219,0.600586 -0.449219,1.743164 v 1.523438 q 0,1.132812 0.434571,1.762695 0.43457,0.629883 1.225586,0.629883 0.830078,0 1.201172,-0.415039 0.371093,-0.415039 0.444335,-1.381836 z m 31.90076,-12.942532 h -2.324219 v 4.142578 h -0.786133 v -9.953125 h 2.72754 q 1.360351,0 2.105468,0.779297 0.751953,0.772461 0.751953,2.15332 0,0.963868 -0.464843,1.695313 -0.464844,0.724609 -1.250977,1.004883 l 2.071289,4.231445 v 0.08887 H 63.22303 Z m -2.324219,-0.724609 h 2.078125 q 0.881836,0 1.408203,-0.601563 0.526368,-0.608398 0.526368,-1.551758 0,-1.045898 -0.546875,-1.620117 -0.546875,-0.574219 -1.53125,-0.574219 h -1.934571 z m -3.279842,0.102539 H 51.76057 v 4.040039 h 4.44336 v 0.724609 h -5.222657 v -9.953125 h 5.188477 v 0.738281 h -4.40918 v 3.725586 h 3.862305 z M 49.191663,36.023746 H 46.361585 V 45.23859 H 45.575453 V 36.023746 H 42.75221 v -0.738281 h 6.439453 z m -8.447813,6.767579 q 0,-0.833985 -0.478515,-1.3125 -0.47168,-0.478516 -1.770508,-0.916016 -1.298828,-0.4375 -1.907227,-0.977539 -0.799804,-0.704102 -0.799804,-1.859375 0,-1.141602 0.786133,-1.859375 0.786132,-0.717774 2.030273,-0.717774 1.271484,0 2.078125,0.833985 0.806641,0.833984 0.806641,2.146484 h -0.786133 q 0,-1.004883 -0.567383,-1.620117 -0.560547,-0.62207 -1.53125,-0.62207 -0.943359,0 -1.490234,0.512695 -0.540039,0.505859 -0.540039,1.3125 0,0.751953 0.512695,1.230469 0.512695,0.478515 1.633789,0.854492 1.121094,0.369141 1.695312,0.772461 0.574219,0.396484 0.847657,0.936523 0.273437,0.540039 0.273437,1.271485 0,1.168945 -0.792969,1.886718 -0.786132,0.710938 -2.084961,0.710938 -0.875,0 -1.599609,-0.355469 -0.717773,-0.362304 -1.12793,-1.032226 -0.40332,-0.676758 -0.40332,-1.592774 h 0.779297 q 0,1.052735 0.635742,1.654297 0.635742,0.601563 1.71582,0.601563 0.94336,0 1.510743,-0.50586 0.574218,-0.505859 0.574218,-1.353515 z m -11.633359,-1.59961 v 4.046875 h -0.779296 v -9.953125 h 2.891601 q 1.319336,0 2.078125,0.792969 0.758789,0.792969 0.758789,2.180664 0,1.415039 -0.738281,2.173828 -0.731445,0.758789 -2.112305,0.758789 z m 0,-0.731445 h 2.112305 q 0.984375,0 1.517578,-0.567383 0.540039,-0.574219 0.540039,-1.620117 0,-1.045899 -0.546875,-1.647461 -0.540039,-0.601563 -1.503906,-0.601563 h -2.119141 z m -3.464414,4.77832 H 24.86678 v -9.953125 h 0.779297 z m -3.478086,0 H 21.381859 V 40.473942 H 16.706077 V 45.23859 H 15.92678 v -9.953125 h 0.779297 v 4.463867 h 4.675782 v -4.463867 h 0.786132 z M 41.6392,14.15252 a 2.71023,3.2775 30 0 0 -3.98642,1.4828 2.71023,3.2775 30 0 0 0.2178,3.80635 c 0.03243,-0.3869 0.11958,-0.84645 0.37364,-1.26825 0.30624,-0.50844 1.023,-0.97033 1.7204,-1.44467 0.3487,-0.23718 0.6925,-0.47083 0.96896,-0.69 0.27645,-0.21917 0.4835,-0.43073 0.56244,-0.57964 0.23854,-0.45017 0.2077,-0.94065 0.15332,-1.3007 a 2.71023,3.2775 30 0 0 -0.01015,-0.0059 z m 0.44014,0.3353 c 0.0091,0.36143 -0.0261,0.77533 -0.22974,1.15964 -0.13248,0.25002 -0.374,0.4707 -0.6679,0.7037 -0.29387,0.23298 -0.64227,0.47154 -0.99107,0.7088 -0.6976,0.47447 -1.39834,0.97584 -1.60526,1.31944 -0.29873,0.49598 -0.33078,1.00928 -0.32377,1.385 a 2.71023,3.2775 30 0 0 0.09928,0.06633 2.71023,3.2775 30 0 0 3.9857,-1.48546 2.71023,3.2775 30 0 0 -0.26724,-3.85745 z" />
</svg>
